<svg width="82" height="85" viewBox="0 0 82 85" fill="none" xmlns="http://www.w3.org/2000/svg">
<path d="M8.75 56.8931C13.2835 71.0173 26.6323 81.25 42.3941 81.25C57.1077 81.25 69.7185 72.333 75.0186 59.6574C78.4578 51.431 75.0186 39.6081 60.5614 43.1426L8.75 56.8931Z" fill="#586BF9" fill-opacity="0.8"/>
<path d="M81.7827 58.75C75.4012 74.1596 60.2166 85 42.5 85C19.0279 85 0 65.9721 0 42.5C0 19.0279 19.0279 0 42.5 0C52.1239 0 61.0006 3.19878 68.125 8.59114C70.1363 10.1135 74.375 15 78.125 13.75C78.125 13.75 74.375 21.25 65.625 21.25C58.9163 21.25 51.593 17.5034 42.5156 17.5C42.5095 17.5 42.5 17.5 42.5 17.5C28.6929 17.5 17.5 28.6929 17.5 42.5C17.5 56.3071 28.6929 67.5 42.5 67.5C50.1033 67.5 56.9138 64.1058 61.499 58.75C70.625 49.375 81.7827 58.75 81.7827 58.75Z" fill="url(#paint0_linear_15_3)"/>
<defs>
<linearGradient id="paint0_linear_15_3" x1="23.4901" y1="-4.27784e-07" x2="57.8431" y2="83.903" gradientUnits="userSpaceOnUse">
<stop stop-color="#FED349"/>
<stop offset="1" stop-color="#ED9220"/>
</linearGradient>
</defs>
</svg>
