<svg width="91" height="126" viewBox="0 0 91 126" fill="none" xmlns="http://www.w3.org/2000/svg">
<path d="M75.8271 105.69H79.3586C80.9935 110.006 82.1379 113.079 82.7919 114.91C82.7919 115.041 82.8573 115.237 82.9881 115.499C83.1188 115.957 83.2169 116.284 83.2823 116.48C83.4131 115.957 83.5766 115.401 83.7728 114.812C84.4268 112.981 85.5712 109.94 87.2061 105.69H90.7375L84.2633 120.894C83.2823 124.099 81.6147 125.537 79.2605 125.21C78.3449 125.145 77.3967 124.916 76.4157 124.524L77.1024 122.268C77.6909 122.464 78.2795 122.562 78.8681 122.562C79.7836 122.627 80.4376 122.104 80.83 120.992L81.6147 119.717L75.8271 105.69Z" fill="#6979FA"/>
<path d="M70.2359 114.714C70.2359 114.453 70.2359 113.995 70.2359 113.341C69.6473 113.929 68.3721 114.322 66.4102 114.518C64.1867 114.714 63.1403 115.434 63.2711 116.676C63.2057 117.722 64.0559 118.246 65.8216 118.246C68.5682 118.049 70.0397 116.872 70.2359 114.714ZM74.7482 120.698H71.5111C70.9879 120.306 70.6936 119.684 70.6282 118.834C69.5165 120.273 67.7508 120.992 65.3311 120.992C61.8651 120.927 60.0667 119.521 59.9359 116.774C60.0013 113.831 61.9305 112.164 65.7235 111.771C68.4048 111.51 69.9089 111.183 70.2359 110.79C70.432 108.894 69.4511 108.011 67.293 108.142C65.0041 108.011 63.7289 108.861 63.4673 110.692L60.3283 109.809C61.0477 106.67 63.4019 105.166 67.3911 105.297C71.5111 105.232 73.5384 107.194 73.473 111.183V116.872C73.473 118.573 73.8981 119.848 74.7482 120.698Z" fill="#6979FA"/>
<path d="M47.4779 112.458V114.518C47.5432 117.068 48.7531 118.376 51.1074 118.442C53.527 118.507 54.7042 116.774 54.6388 113.243C54.6388 109.842 53.4289 108.142 51.0093 108.142C48.655 108.142 47.4779 109.581 47.4779 112.458ZM47.4779 125.701H44.2407V105.689H47.4779C47.4779 106.213 47.4779 106.834 47.4779 107.553C48.328 106.18 49.734 105.461 51.6959 105.395C55.6851 105.591 57.7451 108.207 57.8759 113.243C57.9413 118.54 55.7832 121.156 51.4016 121.09C49.7013 121.025 48.3934 120.404 47.4779 119.227C47.4779 122.3 47.4779 124.458 47.4779 125.701Z" fill="#6979FA"/>
<path d="M31.096 109.613H40.8073V117.363C38.9762 119.782 35.968 120.992 31.7826 120.992C25.0468 120.731 21.5481 117.265 21.2865 110.594C21.5481 103.793 24.916 100.262 31.3903 100C35.968 100.065 39.0416 102.06 40.6112 105.984L37.0797 106.965C36.1642 104.414 34.235 103.106 31.2922 103.041C27.2376 103.368 25.0795 105.886 24.8179 110.594C25.0795 115.303 27.3684 117.821 31.6845 118.148C34.3658 118.148 36.295 117.461 37.4721 116.088V112.556H31.096V109.613Z" fill="#6979FA"/>
<path d="M18.3437 105.984L14.8123 106.965C13.8967 104.48 12.1637 103.172 9.61328 103.041C5.75489 103.237 3.7276 105.755 3.53141 110.594C3.59681 115.499 5.5587 118.017 9.41709 118.148C12.4907 118.213 14.3872 116.611 15.1066 113.341L18.7361 114.224C17.5589 118.801 14.4853 121.058 9.51518 120.992C3.30252 120.861 0.130793 117.395 0 110.594C0.130793 103.728 3.40062 100.196 9.80947 100C13.864 100.065 16.7088 102.06 18.3437 105.984Z" fill="#6979FA"/>
<path d="M13.75 56.8931C18.2835 71.0173 31.6323 81.25 47.3941 81.25C62.1077 81.25 74.7185 72.333 80.0186 59.6574C83.4578 51.431 80.0186 39.6081 65.5614 43.1426L13.75 56.8931Z" fill="#586BF9" fill-opacity="0.8"/>
<path d="M86.7827 58.75C80.4012 74.1596 65.2166 85 47.5 85C24.0279 85 5 65.9721 5 42.5C5 19.0279 24.0279 0 47.5 0C57.1239 0 66.0006 3.19878 73.125 8.59114C75.1363 10.1135 79.375 15 83.125 13.75C83.125 13.75 79.375 21.25 70.625 21.25C63.9163 21.25 56.593 17.5034 47.5156 17.5C47.5095 17.5 47.5 17.5 47.5 17.5C33.6929 17.5 22.5 28.6929 22.5 42.5C22.5 56.3071 33.6929 67.5 47.5 67.5C55.1033 67.5 61.9138 64.1058 66.499 58.75C75.625 49.375 86.7827 58.75 86.7827 58.75Z" fill="url(#paint0_linear_15_6)"/>
<defs>
<linearGradient id="paint0_linear_15_6" x1="28.4901" y1="-4.27784e-07" x2="62.8431" y2="83.903" gradientUnits="userSpaceOnUse">
<stop stop-color="#FED349"/>
<stop offset="1" stop-color="#ED9220"/>
</linearGradient>
</defs>
</svg>
